<svg width="95" height="34" viewBox="0 0 95 34" fill="none" xmlns="http://www.w3.org/2000/svg">
<path d="M15.08 1.52H22.88V23.4C22.88 25.4 22.36 27.28 21.56 28.76C20.08 31.44 16.68 33.4 10.64 33.4C7.44 33.4 2.76 32.36 1.49012e-08 30.8L2.08 24.32C4.12 25.44 8.24 26.52 10.64 26.52C13.84 26.52 15.08 25.4 15.08 23.44V1.52ZM23.9875 10H31.7475V14.2H37.1875C39.4275 14.2 40.7075 12.84 40.7075 10.84C40.7075 9.04 39.7875 7.8 37.0675 7.8H21.5875V1.6H37.9475C45.2275 1.56 48.5875 5.32 48.4275 10.76C48.3475 13.04 47.3075 15.2 45.4275 16.72C47.9875 18.2 49.2275 20.56 49.2275 23.56C49.2275 29.84 44.8275 33.04 38.3875 33H23.9875V10ZM31.7475 19.92V26.8H37.1875C40.3875 26.8 41.5475 25.24 41.5075 23.16C41.4675 21.04 39.9075 19.92 37.5075 19.92H31.7475ZM58.5381 33.2C51.0581 33.2 45.4981 28.32 45.4981 20.88C45.4981 13.4 51.0581 8.56 58.5381 8.56C66.0181 8.56 71.5781 13.4 71.5781 20.88C71.5781 28.32 66.0181 33.2 58.5381 33.2ZM58.5381 15.2C55.4581 15.2 53.3381 17.28 53.3381 20.88C53.3381 24.48 55.4581 26.56 58.5381 26.56C61.6181 26.56 63.7381 24.48 63.7381 20.88C63.7381 17.28 61.6181 15.2 58.5381 15.2ZM69.5859 0.839999H77.3459V17.2C82.2659 16 84.8659 13.24 85.1459 9.08H92.4259C92.1459 14.08 89.2659 17.96 85.4659 20.56L94.5459 33.04H86.2259L79.4259 23.44C78.7459 23.64 78.0259 23.8 77.3459 23.92V33.04H69.5859V0.839999Z" fill="#E6276E"/>
</svg>
